<svg width="23" height="23" viewBox="0 0 23 23" fill="none" xmlns="http://www.w3.org/2000/svg">
<path fill-rule="evenodd" clip-rule="evenodd" d="M21.177 0H2.15389C1.24398 0 0.471191 0.719638 0.471191 1.60616V20.7154C0.471191 21.6029 0.978233 22.3226 1.88814 22.3226H20.9112C21.8222 22.3226 22.7938 21.6029 22.7938 20.7154V1.60616C22.7938 0.719638 22.0879 0 21.177 0Z" fill="white"/>
<path fill-rule="evenodd" clip-rule="evenodd" d="M21.177 0H2.15389C1.24398 0 0.471191 0.719638 0.471191 1.60616V20.7154C0.471191 21.6029 0.978233 22.3226 1.88814 22.3226H20.9112C21.8222 22.3226 22.7938 21.6029 22.7938 20.7154V1.60616C22.7938 0.719638 22.0879 0 21.177 0ZM8.97503 8.50384H11.9801V10.0356H12.013C12.4712 9.20966 13.8243 8.37097 15.4975 8.37097C18.7087 8.37097 19.6048 10.076 19.6048 13.2341V19.1336H16.4159V13.8156C16.4159 12.4018 15.8514 11.1613 14.5312 11.1613C12.9283 11.1613 12.164 12.2466 12.164 14.0281V19.1336H8.97503V8.50384ZM3.66013 19.1336H6.84907V8.50384H3.66013V19.1336ZM7.24769 4.78341C7.24781 5.04511 7.19637 5.30427 7.09633 5.54608C6.99628 5.7879 6.84957 6.00764 6.66459 6.19276C6.47961 6.37787 6.25997 6.52474 6.01823 6.62496C5.77648 6.72518 5.51736 6.7768 5.25566 6.77687C4.99397 6.77694 4.73482 6.72546 4.49302 6.62537C4.25122 6.52527 4.0315 6.37853 3.84642 6.19351C3.66134 6.00849 3.51452 5.78883 3.41435 5.54707C3.31417 5.3053 3.2626 5.04617 3.26258 4.78447C3.26254 4.25608 3.47237 3.74931 3.84594 3.37561C4.2195 3.00192 4.72621 2.7919 5.2546 2.79176C5.783 2.79162 6.28981 3.00136 6.66357 3.37486C7.03734 3.74835 7.24745 4.25502 7.24769 4.78341Z" fill="#0A66C2"/>
</svg>
