   <svg width="23" height="23" viewBox="0 0 23 23" fill="none" xmlns="http://www.w3.org/2000/svg" >
    <path d="M11.3 16.3C11.5833 16.3 11.8208 16.2042 12.0125 16.0125C12.2042 15.8208 12.3 15.5833 12.3 15.3C12.3 15.0167 12.2042 14.7792 12.0125 14.5875C11.8208 14.3958 11.5833 14.3 11.3 14.3C11.0167 14.3 10.7792 14.3958 10.5875 14.5875C10.3958 14.7792 10.3 15.0167 10.3 15.3C10.3 15.5833 10.3958 15.8208 10.5875 16.0125C10.7792 16.2042 11.0167 16.3 11.3 16.3ZM10.3 12.3H12.3V6.3H10.3V12.3ZM11.3 22.6L7.95 19.3H3.3V14.65L0 11.3L3.3 7.95V3.3H7.95L11.3 0L14.65 3.3H19.3V7.95L22.6 11.3L19.3 14.65V19.3H14.65L11.3 22.6Z"  fill="#84E084"/></svg>