<svg width="17" height="18" viewBox="0 0 17 18" fill="none" xmlns="http://www.w3.org/2000/svg">
<path d="M11.0002 11.6668V6.33338M11.0002 6.33338H6.00016M11.0002 6.33338L6.00016 11.6666M5 17H12C13.4002 17 14.1002 17 14.635 16.7093C15.1054 16.4537 15.4878 16.0458 15.7275 15.544C16 14.9735 16 14.2268 16 12.7333V5.26667C16 3.77319 16 3.02645 15.7275 2.45603C15.4878 1.95426 15.1054 1.54631 14.635 1.29065C14.1002 1 13.4002 1 12 1H5C3.59987 1 2.8998 1 2.36503 1.29065C1.89462 1.54631 1.51217 1.95426 1.27248 2.45603C1 3.02645 1 3.77319 1 5.26667V12.7333C1 14.2268 1 14.9735 1.27248 15.544C1.51217 16.0458 1.89462 16.4537 2.36503 16.7093C2.8998 17 3.59987 17 5 17Z" stroke="#57C957" stroke-width="1.3" stroke-linecap="round" stroke-linejoin="round"/>
</svg>
