<svg width="48" height="43" viewBox="0 0 48 43" fill="none" xmlns="http://www.w3.org/2000/svg">
<path d="M11.8301 0.349609C14.2953 0.349609 16.3862 1.21895 18.1221 2.96387C19.8583 4.70882 20.7236 6.81139 20.7236 9.29102C20.7235 11.7704 19.8582 13.8724 18.1221 15.6172C16.3862 17.3625 14.2953 18.2314 11.8301 18.2314C11.5107 18.2314 11.196 18.2153 10.8857 18.1836L10.5762 18.1475C10.1721 18.0922 9.78981 18.0012 9.42871 17.876L9.15918 17.7822L9.0127 18.0283L4.09766 26.2949C3.53334 27.2308 3.34348 28.1821 3.56836 29.1299C3.78465 30.0414 4.236 30.7946 4.92285 31.374C5.60843 31.9515 6.42561 32.2768 7.36035 32.3545C8.33725 32.4356 9.26337 32.0929 10.1279 31.376L10.1328 31.3721L35.8506 9.27539C37.3789 7.97705 38.9507 7.41292 40.5771 7.53613C42.1396 7.65417 43.5113 8.16522 44.7012 9.06836L44.9365 9.25391C46.1763 10.2703 47.0183 11.6045 47.46 13.2705C47.8898 14.894 47.5961 16.5777 46.5322 18.3418L46.5312 18.3428L41.6924 26.3779L41.5361 26.6377L41.7705 26.8291C42.7632 27.6429 43.552 28.6436 44.1387 29.834C44.7216 31.0165 45.0156 32.3066 45.0156 33.709C45.0156 36.188 44.1449 38.291 42.3975 40.0361C40.6493 41.7818 38.5583 42.6503 36.1055 42.6504C33.6531 42.6504 31.5684 41.7778 29.832 40.0244H29.8311C28.0939 38.2704 27.2295 36.1715 27.2295 33.709C27.2295 31.2467 28.0956 29.1482 29.8359 27.3945C31.5765 25.6404 33.6583 24.7686 36.0986 24.7686C36.5255 24.7686 36.9391 24.8007 37.3398 24.8643C37.7403 24.9278 38.1219 25.0227 38.4854 25.1484L38.7549 25.2412L38.9004 24.9971L43.8545 16.7041L43.8555 16.7051C44.4192 15.7701 44.6127 14.8202 44.3965 13.874C44.1881 12.9624 43.7409 12.2091 43.0547 11.6279C42.4564 11.1213 41.7574 10.8044 40.9658 10.6758L40.6211 10.6318C39.6396 10.5422 38.711 10.8927 37.8467 11.627L37.8447 11.6279L12.125 33.6865C10.5775 34.9844 8.99549 35.55 7.36816 35.4316C5.70021 35.3102 4.2615 34.74 3.04004 33.7227C1.81921 32.7056 0.985478 31.3704 0.542969 29.7031C0.13904 28.1812 0.36571 26.614 1.25879 24.9844L1.44629 24.6572L6.26074 16.6455L6.41699 16.3857L6.18262 16.1943C5.19069 15.3815 4.40128 14.3765 3.81445 13.1748C3.23079 11.9796 2.93757 10.6864 2.9375 9.29102C2.9375 6.81147 3.80242 4.70877 5.53809 2.96387C7.27393 1.21899 9.3649 0.349654 11.8301 0.349609ZM36.0957 27.8623C34.4911 27.8623 33.1163 28.4354 31.9922 29.5742C30.8688 30.712 30.3038 32.0971 30.3037 33.709C30.3037 35.3206 30.8687 36.7065 31.9922 37.8447C33.1163 38.9831 34.4911 39.5557 36.0957 39.5557C37.6998 39.5557 39.0823 38.9832 40.2236 37.8467C41.3658 36.7089 41.9404 35.3225 41.9404 33.709C41.9403 32.0953 41.3657 30.7096 40.2236 29.5723C39.0823 28.4353 37.6999 27.8623 36.0957 27.8623ZM11.8301 3.44434C10.2244 3.44438 8.84507 4.01667 7.71289 5.1543C6.58118 6.29235 6.0127 7.67853 6.0127 9.29102C6.01281 10.9037 6.58123 12.2892 7.71289 13.4268C8.84506 14.5648 10.2243 15.1377 11.8301 15.1377C13.336 15.1377 14.6424 14.6338 15.7324 13.6328L15.9473 13.4268C17.0794 12.2892 17.6483 10.9037 17.6484 9.29102C17.6484 7.67848 17.0794 6.29234 15.9473 5.1543C14.8155 4.01669 13.4362 3.44434 11.8301 3.44434Z" fill="white" stroke="#222222" stroke-width="0.7"/>
</svg>
