<svg width="21" height="21" viewBox="0 0 21 21" fill="none" xmlns="http://www.w3.org/2000/svg">
<g clip-path="url(#clip0_1355_151)">
<path d="M20.9598 4.84961L13.594 12.2154C12.7727 13.0346 11.66 13.4946 10.5 13.4946C9.33997 13.4946 8.2273 13.0346 7.406 12.2154L0.04025 4.84961C0.028 4.98786 0 5.11298 0 5.25036V15.7504C0.00138938 16.9103 0.462772 18.0222 1.28294 18.8424C2.10311 19.6626 3.2151 20.124 4.375 20.1254H16.625C17.7849 20.124 18.8969 19.6626 19.7171 18.8424C20.5372 18.0222 20.9986 16.9103 21 15.7504V5.25036C21 5.11298 20.972 4.98786 20.9598 4.84961Z" fill="#60BD60"/>
<path d="M12.3571 10.9777L20.3494 2.98463C19.9622 2.34265 19.4161 1.81128 18.7638 1.44176C18.1116 1.07225 17.375 0.877048 16.6254 0.875H4.37537C3.62569 0.877048 2.88918 1.07225 2.23689 1.44176C1.5846 1.81128 1.03854 2.34265 0.651367 2.98463L8.64362 10.9777C9.13674 11.4689 9.80438 11.7447 10.5004 11.7447C11.1964 11.7447 11.864 11.4689 12.3571 10.9777Z" fill="#60BD60"/>
</g>
<defs>
<clipPath id="clip0_1355_151">
<rect width="21" height="21" fill="white"/>
</clipPath>
</defs>
</svg>
