<svg width="37" height="37" viewBox="0 0 37 37" fill="none" xmlns="http://www.w3.org/2000/svg">
<circle cx="18.5" cy="18.5" r="18.5" fill="white"/>
<path d="M30.0001 18.5011C30.0001 12.1498 24.8514 7.00107 18.5001 7.00107C12.1488 7.00107 7 12.1498 7 18.5011C7 23.8944 10.7129 28.4198 15.7219 29.6626V22.0154H13.3505V18.5011H15.7219V16.9869C15.7219 13.0726 17.4933 11.2584 21.3362 11.2584C22.0647 11.2584 23.3219 11.4012 23.8362 11.5441V14.7298C23.5647 14.7012 23.0933 14.6869 22.5076 14.6869C20.6219 14.6869 19.8933 15.4012 19.8933 17.2583V18.5011H23.6496L23.0043 22.0154H19.8933V29.917C25.5875 29.2292 30.0001 24.3808 30.0001 18.5011Z" fill="#0866FF"/>
<path d="M23.0044 22.0142L23.6497 18.4999H19.8934V17.257C19.8934 15.3999 20.6219 14.6857 22.5076 14.6857C23.0934 14.6857 23.5648 14.6999 23.8362 14.7285V11.5428C23.3219 11.4 22.0648 11.2571 21.3362 11.2571C17.4934 11.2571 15.722 13.0714 15.722 16.9856V18.4999H13.3506V22.0142H15.722V29.6613C16.6118 29.8821 17.5421 30 18.5001 30C18.9718 30 19.4366 29.9709 19.8934 29.9158V22.0142H23.0044Z" fill="white"/>
</svg>
