<svg width="153" height="40" viewBox="0 0 153 40" fill="none" xmlns="http://www.w3.org/2000/svg">
<path d="M20.647 0.0614141C28.0997 -0.384267 36.1979 1.57233 41.7739 6.69866C45.3733 10.0083 49.6582 17.357 43.6925 20.6127C37.7268 23.8684 28.4594 18.9259 21.7003 20.1091C19.5798 20.4808 17.0296 22.0876 18.1548 24.5619C19.1021 26.6424 22.3538 25.6951 24.1045 25.2933C27.7499 24.4579 31.4433 22.9051 35.2525 23.7724C40.177 24.8936 39.6434 30.02 35.6962 32.0905C33.7516 33.1098 31.7371 32.9039 29.7805 33.5614C26.6127 34.6227 31.807 36.909 30.1082 38.6858C28.6892 40.1687 26.4289 37.6845 25.7134 36.4813C23.9606 33.5394 25.7134 31.1552 28.7072 30.3777C30.3221 29.958 32.7463 29.98 34.1673 29.1226C35.3645 28.3991 35.2026 27.2739 33.7536 27.0981C28.4874 26.4585 23.7088 30.4896 18.3467 29.0746C13.3622 27.7596 12.6387 21.8878 16.3081 18.6481C21.5424 14.0274 30.0902 17.1852 36.1759 17.9606C39.8912 18.4343 44.5579 18.4982 42.0797 13.3039C38.844 6.52079 28.3615 3.42301 21.3845 3.77276C14.0937 4.13849 3.42534 9.03499 4.16481 17.7388C4.29871 19.3156 5.9915 22.2975 7.2546 19.7673C8.35781 17.5569 7.99007 15.4304 9.65288 13.0521C14.9951 5.41558 29.1289 6.30694 35.952 11.3713C36.9513 12.1148 38.0785 13.264 36.7835 14.3772C35.3485 15.6123 33.4518 14.0494 32.0508 13.4478C27.1783 11.3533 19.7137 10.2541 15.089 13.4039C11.9312 15.5543 12.315 18.3123 10.9939 21.3961C7.88614 28.641 0.499432 24.1781 0.0377623 17.9286C-0.761665 7.12636 11.2957 0.621013 20.647 0.0614141Z" fill="url(#paint0_linear_1355_337)"/>
<path d="M88.5861 16.1498C91.7219 13.5077 97.2499 13.5157 99.5683 17.2031C102.084 13.9054 108.052 13.1839 111.032 16.1978C114.49 19.6953 112.517 27.6036 113.051 32.1244C112.807 34.9324 109.091 34.7845 108.826 32.3142C108.48 29.1185 109.069 25.3133 108.83 22.0456C108.64 19.4694 107.089 17.9545 104.457 18.1604C102.486 18.3143 101.011 19.9171 100.859 21.8537C100.6 25.1474 101.149 28.8467 100.865 32.1244C100.624 34.9144 96.9162 34.8884 96.6424 32.1204C96.3186 28.8487 96.9262 25.0554 96.6444 21.7578C96.2207 16.7814 89.0638 16.9652 88.6761 21.9497C88.4222 25.2153 88.9639 28.8767 88.6821 32.1244C88.4362 34.9723 84.6809 34.8125 84.4551 32.1244L84.4831 16.1258C84.8368 13.6856 88.3743 13.6996 88.5841 16.1478L88.5861 16.1498Z" fill="white"/>
<path d="M121.203 16.9177C123.61 14.2237 127.777 13.6501 131.054 14.9811C138.611 18.0529 138.767 30.1003 131.312 33.4039C127.909 34.9109 123.72 34.2953 121.11 31.5952C121.555 34.711 117.28 35.2047 116.98 32.1269L116.994 6.23339C117.146 4.20884 119.972 3.59129 120.92 5.35602C120.984 5.47394 121.203 6.04553 121.203 6.12747V16.9197V16.9177ZM125.786 18.1908C119.543 18.9403 119.469 29.8605 126.236 30.3501C134.676 30.9617 134.674 17.1236 125.786 18.1908Z" fill="white"/>
<path d="M67.7351 24.9132C66.1402 23.2384 61.5715 21.9214 59.3531 20.3925C53.2674 16.1995 56.1314 8.35108 63.0225 7.80547C65.8105 7.58362 70.1833 8.61888 71.6103 11.301C72.4877 12.9498 70.9108 14.7105 69.27 14.025C68.6105 13.7492 67.9909 12.9358 67.3214 12.5201C65.4207 11.3369 61.6035 10.9112 60.5562 13.3975C59.0353 17.0109 64.4914 18.3559 66.8437 19.5211C70.9788 21.5676 74.3943 24.5874 72.2259 29.6738C69.5818 35.8774 59.9087 35.1659 55.9715 30.5852C55.0402 29.5039 54.5305 27.8651 56.1394 27.1116C57.9021 26.2862 58.4897 27.8291 59.6249 28.7545C61.4056 30.2074 64.1676 30.8929 66.3561 30.0355C68.3966 29.2381 69.3339 26.59 67.7371 24.9112L67.7351 24.9132Z" fill="white"/>
<path d="M141.876 4.30859C142.973 4.30859 143.921 5.08804 143.943 6.21723L143.939 32.4105C143.529 34.8787 139.999 34.7548 139.81 32.2226L139.814 6.12529C139.985 5.05606 140.769 4.30859 141.876 4.30859Z" fill="white"/>
<path d="M77.7202 14.3496C79.3311 14.0757 80.2204 15.055 80.3383 16.578C80.7281 21.5424 80.0406 27.0085 80.3324 32.0249C80.0725 34.8868 76.3532 34.9008 76.1094 32.2228L76.1154 16.2002C76.1613 15.3508 76.8748 14.4954 77.7202 14.3515V14.3496Z" fill="white"/>
<path d="M149.765 14.3487C151.292 14.0889 152.257 15.0022 152.383 16.4812C152.042 21.4896 152.829 27.0856 152.377 32.024C152.113 34.918 148.394 34.864 148.154 32.2219L148.158 16.1974C148.248 15.358 148.906 14.4966 149.765 14.3507V14.3487Z" fill="white"/>
<path d="M77.9159 5.04788C81.5633 4.69813 82.0629 9.97635 78.6454 10.3821C74.8101 10.8377 74.3524 5.38964 77.9159 5.04788Z" fill="white"/>
<path d="M149.961 5.04815C153.574 4.66442 154.15 9.97262 150.69 10.3823C146.863 10.836 146.415 5.42388 149.961 5.04815Z" fill="white"/>
<defs>
<linearGradient id="paint0_linear_1355_337" x1="1.73864" y1="27.3124" x2="46.9432" y2="10.7954" gradientUnits="userSpaceOnUse">
<stop stop-color="#83E083"/>
<stop offset="1" stop-color="#53C753"/>
</linearGradient>
</defs>
</svg>
