<svg width="37" height="37" viewBox="0 0 37 37" fill="none" xmlns="http://www.w3.org/2000/svg">
<circle cx="18.5" cy="18.5" r="18.5" fill="white"/>
<g clip-path="url(#clip0_1355_156)">
<path d="M30.7138 19.2242C30.7138 18.2409 30.634 17.5234 30.4614 16.7793H19.2334V21.2173H25.824C25.6911 22.3202 24.9736 23.9811 23.3791 25.0972L23.3567 25.2458L26.9068 27.996L27.1528 28.0205C29.4116 25.9344 30.7138 22.8649 30.7138 19.2242Z" fill="#4285F4"/>
<path d="M19.234 30.9178C22.4628 30.9178 25.1734 29.8548 27.1533 28.0211L23.3797 25.0978C22.3698 25.8021 21.0145 26.2937 19.234 26.2937C16.0716 26.2937 13.3875 24.2076 12.4307 21.3242L12.2905 21.3361L8.59906 24.193L8.55078 24.3271C10.5173 28.2337 14.5567 30.9178 19.234 30.9178Z" fill="#34A853"/>
<path d="M12.4299 21.3238C12.1775 20.5797 12.0314 19.7824 12.0314 18.9586C12.0314 18.1347 12.1775 17.3375 12.4166 16.5934L12.41 16.4349L8.67228 13.5322L8.54999 13.5904C7.73948 15.2115 7.27441 17.0319 7.27441 18.9586C7.27441 20.8853 7.73948 22.7056 8.54999 24.3267L12.4299 21.3238Z" fill="#FBBC05"/>
<path d="M19.234 11.624C21.4795 11.624 22.9943 12.594 23.858 13.4046L27.233 10.1093C25.1602 8.1826 22.4628 7 19.234 7C14.5567 7 10.5173 9.68406 8.55078 13.5906L12.4174 16.5936C13.3875 13.7102 16.0716 11.624 19.234 11.624Z" fill="#EB4335"/>
</g>
<defs>
<clipPath id="clip0_1355_156">
<rect width="24" height="24" fill="white" transform="translate(7 7)"/>
</clipPath>
</defs>
</svg>
