<svg width="47" height="43" viewBox="0 0 47 43" fill="none" xmlns="http://www.w3.org/2000/svg">
<path d="M19.3135 0.349609H27.6865C28.8459 0.349707 29.814 0.745204 30.6123 1.53809C31.4107 2.33113 31.8076 3.29255 31.8076 4.44238V8.9502H42.5283C43.688 8.95022 44.6566 9.34556 45.4551 10.1387C46.2532 10.9316 46.6504 11.8923 46.6504 13.042V38.5576C46.6504 39.7074 46.2534 40.6689 45.4551 41.4619C44.6566 42.255 43.688 42.6504 42.5283 42.6504H4.47168C3.31205 42.6504 2.34337 42.255 1.54492 41.4619C0.746608 40.6689 0.349609 39.7074 0.349609 38.5576V13.042C0.349609 11.8923 0.746802 10.9316 1.54492 10.1387C2.34337 9.34556 3.31205 8.95022 4.47168 8.9502H15.1924V4.44238C15.1924 3.29255 15.5893 2.33113 16.3877 1.53809C17.186 0.745204 18.1541 0.349707 19.3135 0.349609ZM3.36035 38.5576C3.36035 38.8564 3.48973 39.1152 3.70117 39.3252V39.3262C3.91283 39.537 4.17275 39.664 4.47168 39.6641H42.5283C42.8273 39.664 43.0862 39.536 43.2979 39.3252C43.5096 39.1151 43.6396 38.8566 43.6396 38.5576V28.5215H29.334V32.8213H17.666V28.5215H3.36035V38.5576ZM20.6768 29.8359H26.3232V24.2217H20.6768V29.8359ZM4.47168 11.9355C4.17305 11.9356 3.91369 12.063 3.70215 12.2734C3.49001 12.4836 3.36035 12.7426 3.36035 13.042V25.5361H17.666V21.2354H29.334V25.5361H43.6396V13.042C43.6396 12.78 43.5401 12.549 43.373 12.3545L43.2979 12.2734C43.0863 12.063 42.827 11.9356 42.5283 11.9355H4.47168ZM19.3135 3.33594C19.0518 3.33604 18.8206 3.43381 18.625 3.59961L18.5439 3.67383C18.332 3.88394 18.2021 4.1432 18.2021 4.44238V8.9502H28.7979V4.44238C28.7979 4.18053 28.6981 3.94928 28.5312 3.75488L28.4561 3.67383C28.2445 3.46329 27.9852 3.33606 27.6865 3.33594H19.3135Z" fill="white" stroke="#105134" stroke-width="0.7"/>
</svg>
