<svg width="37" height="37" viewBox="0 0 37 37" fill="none" xmlns="http://www.w3.org/2000/svg">
<circle cx="18.5" cy="18.5" r="18.5" fill="white"/>
<g clip-path="url(#clip0_1355_163)">
<path d="M27.1908 9H10.8092C9.81 9 9 9.81 9 10.8092V27.1908C9 28.19 9.81 29 10.8092 29H27.1908C28.19 29 29 28.19 29 27.1908V10.8092C29 9.81 28.19 9 27.1908 9ZM15.1888 26.2693C15.1888 26.5601 14.9531 26.7958 14.6624 26.7958H12.4212C12.1304 26.7958 11.8947 26.5601 11.8947 26.2693V16.8745C11.8947 16.5837 12.1304 16.348 12.4212 16.348H14.6624C14.9531 16.348 15.1888 16.5837 15.1888 16.8745V26.2693ZM13.5418 15.4624C12.3659 15.4624 11.4127 14.5092 11.4127 13.3333C11.4127 12.1574 12.3659 11.2042 13.5418 11.2042C14.7176 11.2042 15.6709 12.1574 15.6709 13.3333C15.6709 14.5092 14.7177 15.4624 13.5418 15.4624ZM26.901 26.3117C26.901 26.5791 26.6843 26.7958 26.417 26.7958H24.012C23.7447 26.7958 23.528 26.5791 23.528 26.3117V21.905C23.528 21.2476 23.7208 19.0243 21.81 19.0243C20.3279 19.0243 20.0272 20.5461 19.9669 21.2291V26.3117C19.9669 26.5791 19.7502 26.7958 19.4828 26.7958H17.1568C16.8895 26.7958 16.6727 26.5791 16.6727 26.3117V16.8321C16.6727 16.5648 16.8895 16.348 17.1568 16.348H19.4828C19.7501 16.348 19.9669 16.5648 19.9669 16.8321V17.6517C20.5164 16.827 21.3332 16.1904 23.0722 16.1904C26.9231 16.1904 26.901 19.7881 26.901 21.7648V26.3117Z" fill="#064CCF"/>
</g>
<defs>
<clipPath id="clip0_1355_163">
<rect width="20" height="20" fill="white" transform="translate(9 9)"/>
</clipPath>
</defs>
</svg>
