<svg width="26" height="24" viewBox="0 0 26 24" fill="none" xmlns="http://www.w3.org/2000/svg">
<path d="M2.47376 24C1.78248 24 1.19737 23.76 0.718421 23.28C0.239474 22.8 0 22.2136 0 21.5208V16.1143H9.57895V18.5143H16.4211V16.1143H26V21.5208C26 22.2136 25.7605 22.8 25.2816 23.28C24.8026 23.76 24.2175 24 23.5262 24H2.47376ZM11.6316 16.4571V13.7143H14.3684V16.4571H11.6316ZM0 14.0571V7.2792C0 6.5864 0.239474 6 0.718421 5.52C1.19737 5.04 1.78248 4.8 2.47376 4.8H8.21053V2.4792C8.21053 1.7864 8.45 1.2 8.92895 0.72C9.40789 0.24 9.99301 0 10.6843 0H15.3157C16.007 0 16.5921 0.24 17.0711 0.72C17.55 1.2 17.7895 1.7864 17.7895 2.4792V4.8H23.5262C24.2175 4.8 24.8026 5.04 25.2816 5.52C25.7605 6 26 6.5864 26 7.2792V14.0571H16.4211V11.6571H9.57895V14.0571H0ZM10.2632 4.8H15.7368V2.4792C15.7368 2.3736 15.6929 2.27691 15.6051 2.18914C15.5176 2.10114 15.4211 2.05714 15.3157 2.05714H10.6843C10.5789 2.05714 10.4824 2.10114 10.3949 2.18914C10.3071 2.27691 10.2632 2.3736 10.2632 2.4792V4.8Z" fill="#60BD60"/>
</svg>
