<svg width="43" height="40" viewBox="0 0 43 40" fill="none" xmlns="http://www.w3.org/2000/svg">
<path d="M21.499 3.71387C23.9749 3.71388 26.2909 4.18646 28.4492 5.13086C30.6129 6.07747 32.4974 7.3629 34.1045 8.9873C35.7117 10.6118 36.9841 12.5165 37.9209 14.7031C38.8555 16.8851 39.3232 19.2269 39.3232 21.7305C39.3232 24.2341 38.8556 26.5764 37.9209 28.7588C36.9841 30.9464 35.7116 32.8511 34.1045 34.4756C32.4973 36.1001 30.613 37.3864 28.4502 38.333C26.2923 39.2773 23.9767 39.75 21.501 39.75C19.0251 39.75 16.7091 39.2774 14.5508 38.333C12.387 37.3864 10.5027 36.1001 8.89551 34.4756C7.28834 32.8511 6.0159 30.9464 5.0791 28.7598C4.14454 26.5778 3.67676 24.236 3.67676 21.7324C3.6768 19.229 4.14453 16.8873 5.0791 14.7051C6.01593 12.5173 7.2883 10.6118 8.89551 8.9873C10.5027 7.36283 12.3871 6.07747 14.5498 5.13086C16.7077 4.18654 19.0232 3.71387 21.499 3.71387ZM21.5 6.4375C17.3007 6.4375 13.7224 7.92656 10.7803 10.9004C7.83836 13.874 6.36628 17.4895 6.36621 21.7314C6.36621 25.9734 7.83848 29.5888 10.7803 32.5625C13.7224 35.5363 17.3007 37.0264 21.5 37.0264C25.6993 37.0264 29.2776 35.5363 32.2197 32.5625C35.1615 29.5888 36.6338 25.9734 36.6338 21.7314C36.6337 17.4895 35.1616 13.874 32.2197 10.9004C29.2776 7.92656 25.6993 6.4375 21.5 6.4375ZM22.8447 13.9219V20.3701H29.2236V23.0938H22.8447V29.541H20.1553V23.0938H13.7764V20.3701H20.1553V13.9219H22.8447ZM10.1074 2.26465L2.24023 10.2168L0.351562 8.30762L8.21875 0.354492L10.1074 2.26465ZM42.6475 8.30762L40.7588 10.2168L32.8916 2.26465L34.7803 0.354492L42.6475 8.30762Z" fill="#6F6F6F" stroke="white" stroke-width="0.5"/>
</svg>
