<svg width="22" height="21" viewBox="0 0 22 21" fill="none" xmlns="http://www.w3.org/2000/svg">
<path d="M16.8778 18.0782C15.1693 19.3195 13.1117 19.9881 10.9999 19.9881C8.88812 19.9881 6.83054 19.3195 5.12206 18.0782M15.3836 1.0001C17.2817 1.92584 18.838 3.42872 19.8294 5.29332C20.8208 7.15792 21.1965 9.28848 20.9026 11.3798M1.09733 11.3797C0.803428 9.28848 1.17911 7.15783 2.17054 5.29322C3.16196 3.42862 4.71823 1.92575 6.6163 1M10.4342 4.55372L5.5656 9.42238C5.36759 9.62038 5.26859 9.71938 5.23149 9.83348C5.19886 9.93398 5.19886 10.0421 5.23149 10.1426C5.26859 10.2567 5.36759 10.3557 5.5656 10.5537L10.4342 15.4224C10.6322 15.6204 10.7312 15.7194 10.8454 15.7565C10.9458 15.7891 11.054 15.7891 11.1544 15.7565C11.2686 15.7194 11.3676 15.6204 11.5656 15.4224L16.4342 10.5537C16.6322 10.3557 16.7312 10.2567 16.7683 10.1426C16.801 10.0421 16.801 9.93398 16.7683 9.83348C16.7312 9.71938 16.6322 9.62038 16.4342 9.42238L11.5656 4.55372C11.3676 4.35571 11.2686 4.25671 11.1544 4.21962C11.054 4.18699 10.9458 4.18699 10.8454 4.21962C10.7312 4.25671 10.6322 4.35571 10.4342 4.55372Z" stroke="#3D3D3D" stroke-width="1.5" stroke-linecap="round" stroke-linejoin="round"/>
</svg>
