<svg width="22" height="22" viewBox="0 0 22 22" fill="none" xmlns="http://www.w3.org/2000/svg">
<path d="M12.7142 10.6715C12.7142 11.7996 11.7997 12.7141 10.6716 12.7141C9.54348 12.7141 8.629 11.7996 8.629 10.6715C8.629 9.54339 9.54348 8.62891 10.6716 8.62891C11.7997 8.62891 12.7142 9.54339 12.7142 10.6715Z" fill="#363636"/>
<path d="M15.4486 7.05762C15.3504 6.79154 15.1937 6.55071 14.9902 6.35303C14.7925 6.14948 14.5518 5.99284 14.2856 5.89465C14.0697 5.81078 13.7453 5.71097 13.1478 5.68377C12.5016 5.6543 12.3078 5.64795 10.6716 5.64795C9.03527 5.64795 8.84149 5.65414 8.19536 5.68361C7.59792 5.71097 7.27339 5.81078 7.05763 5.89465C6.79139 5.99284 6.55056 6.14948 6.35304 6.35303C6.14949 6.55071 5.99285 6.79138 5.89449 7.05762C5.81063 7.27354 5.71081 7.59807 5.68362 8.19551C5.65415 8.84165 5.6478 9.03542 5.6478 10.6718C5.6478 12.3079 5.65415 12.5017 5.68362 13.148C5.71081 13.7454 5.81063 14.0698 5.89449 14.2857C5.99285 14.552 6.14933 14.7926 6.35288 14.9903C6.55056 15.1939 6.79123 15.3505 7.05747 15.4487C7.27339 15.5327 7.59792 15.6325 8.19536 15.6597C8.84149 15.6892 9.0351 15.6954 10.6714 15.6954C12.3079 15.6954 12.5017 15.6892 13.1477 15.6597C13.7451 15.6325 14.0697 15.5327 14.2856 15.4487C14.82 15.2426 15.2424 14.8202 15.4486 14.2857C15.5324 14.0698 15.6322 13.7454 15.6596 13.148C15.6891 12.5017 15.6952 12.3079 15.6952 10.6718C15.6952 9.03542 15.6891 8.84165 15.6596 8.19551C15.6324 7.59807 15.5326 7.27354 15.4486 7.05762ZM10.6716 13.8182C8.93366 13.8182 7.5248 12.4095 7.5248 10.6716C7.5248 8.93365 8.93366 7.52496 10.6716 7.52496C12.4094 7.52496 13.8182 8.93365 13.8182 10.6716C13.8182 12.4095 12.4094 13.8182 10.6716 13.8182ZM13.9426 8.13592C13.5365 8.13592 13.2073 7.80666 13.2073 7.40055C13.2073 6.99444 13.5365 6.66518 13.9426 6.66518C14.3488 6.66518 14.678 6.99444 14.678 7.40055C14.6779 7.80666 14.3488 8.13592 13.9426 8.13592Z" fill="#363636"/>
<path d="M10.6716 0C4.77874 0 0 4.77874 0 10.6716C0 16.5645 4.77874 21.3432 10.6716 21.3432C16.5645 21.3432 21.3432 16.5645 21.3432 10.6716C21.3432 4.77874 16.5645 0 10.6716 0ZM16.7625 13.198C16.7328 13.8503 16.6291 14.2957 16.4777 14.6855C16.1593 15.5086 15.5086 16.1593 14.6855 16.4777C14.2958 16.6291 13.8503 16.7327 13.1982 16.7625C12.5447 16.7923 12.3359 16.7994 10.6718 16.7994C9.00742 16.7994 8.79883 16.7923 8.1452 16.7625C7.49305 16.7327 7.04753 16.6291 6.65786 16.4777C6.24882 16.3238 5.87853 16.0826 5.5724 15.7708C5.26073 15.4648 5.01957 15.0944 4.86569 14.6855C4.71426 14.2958 4.61053 13.8503 4.58089 13.1982C4.55077 12.5445 4.54377 12.3358 4.54377 10.6716C4.54377 9.00742 4.55077 8.79866 4.58073 8.1452C4.61037 7.49288 4.71393 7.04753 4.86537 6.6577C5.01925 6.24882 5.26057 5.87837 5.5724 5.5724C5.87837 5.26057 6.24882 5.01941 6.6577 4.86553C7.04753 4.71409 7.49288 4.61053 8.1452 4.58073C8.79866 4.55093 9.00742 4.54377 10.6716 4.54377C12.3358 4.54377 12.5445 4.55093 13.198 4.58089C13.8503 4.61053 14.2957 4.71409 14.6855 4.86537C15.0944 5.01925 15.4648 5.26057 15.771 5.5724C16.0826 5.87853 16.324 6.24882 16.4777 6.6577C16.6293 7.04753 16.7328 7.49288 16.7626 8.1452C16.7924 8.79866 16.7994 9.00742 16.7994 10.6716C16.7994 12.3358 16.7924 12.5445 16.7625 13.198Z" fill="#363636"/>
</svg>
