<svg width="21" height="21" viewBox="0 0 21 21" fill="none" xmlns="http://www.w3.org/2000/svg">
<path d="M10.355 0C4.63582 0 0 4.63582 0 10.355C0 16.0736 4.63582 20.7101 10.355 20.7101C16.0742 20.7101 20.7101 16.0736 20.7101 10.355C20.7101 4.63582 16.0742 0 10.355 0Z" fill="white"/>
<path d="M15.7228 14.8481V10.8763C15.7228 8.74831 14.587 7.75811 13.0719 7.75811C11.8494 7.75811 11.3019 8.43054 10.997 8.90234V7.92055H8.69435C8.72476 8.57098 8.69435 14.8481 8.69435 14.8481H10.997V10.9792C10.997 10.7727 11.0119 10.5656 11.0728 10.4181C11.2391 10.0045 11.6177 9.57606 12.2539 9.57606C13.0875 9.57606 13.4208 10.211 13.4208 11.1423V14.8487L15.7228 14.8481ZM6.26803 6.97501C7.07055 6.97501 7.57083 6.44237 7.57083 5.77771C7.55594 5.09816 7.07055 4.58105 6.28292 4.58105C5.49529 4.58105 4.98077 5.09816 4.98077 5.77771C4.98077 6.44302 5.4804 6.97501 6.2538 6.97501H6.26803ZM7.41938 14.8481V7.92055H5.11733V14.8481H7.41938Z" fill="#155DFC"/>
</svg>
